<svg xmlns="http://www.w3.org/2000/svg" viewBox="0 0 64 64">
  <rect width="64" height="64" rx="14" fill="#17324d"/>
  <path d="M18 14h18l10 10v26H18z" fill="#f8fbff"/>
  <path d="M36 14v10h10" fill="#d9e8f5"/>
  <path d="M36 14v10h10" stroke="#aac4da" stroke-linecap="round" stroke-linejoin="round" stroke-width="2"/>
  <path d="M18 14h18l10 10v26H18z" fill="none" stroke="#aac4da" stroke-linejoin="round" stroke-width="2"/>
  <path d="M24 34h16M24 40h16" stroke="#aac4da" stroke-linecap="round" stroke-width="2.5"/>
  <rect x="22" y="22" width="20" height="8" rx="4" fill="#d13f3f"/>
  <path d="M25.5 27.4v-3.8h2.4c1.7 0 2.7.7 2.7 1.9 0 1.3-1 1.9-2.7 1.9h-1.1v1.9zm1.3-3v1.2h1c.9 0 1.4-.2 1.4-.6s-.5-.6-1.4-.6zm5 3v-3.8h1.9c1.4 0 2.3.7 2.3 1.9s-.9 1.9-2.3 1.9zm1.3-1h.5c.7 0 1.2-.3 1.2-.9s-.5-.9-1.2-.9h-.5zm5.1 1v-3.8h3.5v1h-2.2v.5h1.9v1h-1.9v1.3z" fill="#fff"/>
</svg>
